<svg xmlns="http://www.w3.org/2000/svg" viewBox="0 0 128 128">
  <path fill="#336791" d="M106.876 67.587c-.128-.095-.265-.175-.407-.246-.404-.201-.809-.4-1.207-.613-1.141-.612-2.254-1.263-3.326-1.968-3.217-2.113-6.059-4.72-8.402-7.706-.781-.995-1.514-2.027-2.201-3.09-.686-1.063-1.326-2.156-1.915-3.277-.589-1.121-1.127-2.27-1.609-3.443-.482-1.173-.908-2.371-1.272-3.586-.364-1.215-.666-2.446-.901-3.688-.235-1.242-.403-2.495-.5-3.754-.097-1.259-.124-2.524-.078-3.786.046-1.262.14-2.52.278-3.772.138-1.252.324-2.496.555-3.731.231-1.235.509-2.46.831-3.672.322-1.212.689-2.411 1.098-3.596.409-1.185.861-2.355 1.354-3.508.493-1.153 1.027-2.29 1.6-3.409.573-1.119 1.185-2.22 1.835-3.302.65-1.082 1.338-2.145 2.062-3.188.724-1.043 1.484-2.066 2.278-3.068.794-1.002 1.622-1.983 2.482-2.942.86-.959 1.751-1.896 2.673-2.81.922-.914 1.873-1.805 2.853-2.672.98-.867 1.988-1.71 3.023-2.528 1.035-.818 2.096-1.61 3.183-2.375 1.087-.765 2.199-1.503 3.334-2.212 1.135-.709 2.293-1.39 3.473-2.041 1.18-.651 2.381-1.272 3.602-1.862 1.221-.59 2.462-1.149 3.722-1.677 1.26-.528 2.538-1.025 3.834-1.49 1.296-.465 2.609-.898 3.938-1.299 1.329-.401 2.674-.77 4.033-1.107 1.359-.337 2.731-.642 4.116-.915 1.385-.273 2.782-.514 4.189-.723 1.407-.209 2.825-.386 4.252-.531 1.427-.145 2.862-.258 4.305-.339 1.443-.081 2.893-.13 4.348-.147 1.455-.017 2.915-.002 4.375.043 1.46.045 2.919.14 4.374.285 1.455.145 2.907.34 4.353.585 1.446.245 2.886.54 4.318.885 1.432.345 2.856.74 4.269 1.185 1.413.445 2.815.94 4.204 1.485 1.389.545 2.765 1.14 4.125 1.785 1.36.645 2.705 1.34 4.031 2.085 1.326.745 2.634 1.54 3.922 2.385 1.288.845 2.556 1.74 3.803 2.685 1.247.945 2.473 1.94 3.677 2.985 1.204 1.045 2.386 2.14 3.545 3.285 1.159 1.145 2.295 2.34 3.407 3.585 1.112 1.245 2.201 2.54 3.265 3.885 1.064 1.345 2.103 2.74 3.116 4.185 1.013 1.445 2 2.94 2.959 4.485.959 1.545 1.891 3.14 2.794 4.785.903 1.645 1.777 3.34 2.622 5.085.845 1.745 1.661 3.54 2.447 5.385.786 1.845 1.542 3.74 2.267 5.685.725 1.945 1.419 3.94 2.082 5.985.663 2.045 1.295 4.14 1.895 6.285.6 2.145 1.168 4.34 1.704 6.585.536 2.245 1.04 4.54 1.511 6.885.471 2.345.909 4.74 1.314 7.185.405 2.445.777 4.94 1.115 7.485.338 2.545.643 5.14.914 7.785.271 2.645.508 5.34.711 8.085.203 2.745.372 5.54.506 8.385.134 2.845.234 5.74.298 8.685.064 2.945.093 5.94.087 8.985-.006 3.045-.077 6.14-.213 9.285-.136 3.145-.337 6.34-.603 9.585-.266 3.245-.597 6.54-.993 9.885-.396 3.345-.857 6.74-1.383 10.185-.526 3.445-1.117 6.94-1.773 10.485-.656 3.545-1.377 7.14-2.163 10.785-.786 3.645-1.637 7.34-2.553 11.085-.916 3.745-1.897 7.54-2.943 11.385-.046 1.345-1.137 7.54-2.943 11.385z"/>
</svg>
